<?xml version="1.0" encoding="UTF-8" standalone="no"?>
<!-- Created with Inkscape (http://www.inkscape.org/) -->

<svg
   width="150"
   height="150"
   viewBox="0 0 39.687496 39.687496"
   version="1.1"
   id="svg1"
   inkscape:version="1.3.2 (091e20e, 2023-11-25, custom)"
   sodipodi:docname="logo-inkscape.svg"
   inkscape:export-filename="logo-rect.png"
   inkscape:export-xdpi="96"
   inkscape:export-ydpi="96"
   xmlns:inkscape="http://www.inkscape.org/namespaces/inkscape"
   xmlns:sodipodi="http://sodipodi.sourceforge.net/DTD/sodipodi-0.dtd"
   xmlns="http://www.w3.org/2000/svg"
   xmlns:svg="http://www.w3.org/2000/svg">
  <sodipodi:namedview
     id="namedview1"
     pagecolor="#505050"
     bordercolor="#eeeefd"
     borderopacity="1"
     inkscape:showpageshadow="true"
     inkscape:pageopacity="0"
     inkscape:pagecheckerboard="false"
     inkscape:deskcolor="#505050"
     inkscape:document-units="px"
     showguides="true"
     showgrid="false"
     inkscape:export-bgcolor="#ffffff00"
     inkscape:zoom="2.8284271"
     inkscape:cx="31.996582"
     inkscape:cy="93.868425"
     inkscape:window-width="1920"
     inkscape:window-height="1009"
     inkscape:window-x="-8"
     inkscape:window-y="-8"
     inkscape:window-maximized="1"
     inkscape:current-layer="g42">
    <sodipodi:guide
       position="40.19044,-0.1332046"
       orientation="1,0"
       id="guide18"
       inkscape:locked="false" />
    <sodipodi:guide
       position="40.065767,-0.84439453"
       orientation="0,-1"
       id="guide19"
       inkscape:locked="false" />
    <sodipodi:guide
       position="39.840456,-0.68108454"
       orientation="0,-1"
       id="guide20"
       inkscape:locked="false" />
    <sodipodi:guide
       position="39.556236,-0.51985456"
       orientation="0,-1"
       id="guide21"
       inkscape:locked="false" />
    <inkscape:grid
       id="grid21"
       units="px"
       originx="0"
       originy="0"
       spacingx="0.26458333"
       spacingy="0.26458334"
       empcolor="#0099e5"
       empopacity="0.30196078"
       color="#0099e5"
       opacity="0.14901961"
       empspacing="5"
       dotted="false"
       gridanglex="30"
       gridanglez="30"
       visible="false" />
    <sodipodi:guide
       position="27.198337,12.294854"
       orientation="1,0"
       id="guide26"
       inkscape:locked="false" />
    <sodipodi:guide
       position="19.878169,34.869963"
       orientation="1,0"
       id="guide27"
       inkscape:locked="false" />
    <sodipodi:guide
       position="53.179947,15.140834"
       orientation="1,0"
       id="guide28"
       inkscape:locked="false" />
    <sodipodi:guide
       position="54.634385,12.546004"
       orientation="1,0"
       id="guide29"
       inkscape:locked="false" />
    <sodipodi:guide
       position="29.074746,-1.5159145"
       orientation="0,-1"
       id="guide30"
       inkscape:locked="false" />
    <sodipodi:guide
       position="-4.7707606,19.809327"
       orientation="0,-1"
       id="guide48"
       inkscape:locked="false" />
    <sodipodi:guide
       position="62.369313,14.800134"
       orientation="1,0"
       id="guide49"
       inkscape:locked="false" />
  </sodipodi:namedview>
  <defs
     id="defs1">
    <rect
       x="93.69165"
       y="74.953316"
       width="172.53406"
       height="91.393555"
       id="rect48" />
    <inkscape:perspective
       sodipodi:type="inkscape:persp3d"
       inkscape:vp_x="16.804427 : -114.65751 : 1"
       inkscape:vp_y="0 : 999.99987 : 0"
       inkscape:vp_z="209.99998 : -108.81249 : 1"
       inkscape:persp3d-origin="104.99999 : -158.31248 : 1"
       id="perspective6" />
    <rect
       x="93.69165"
       y="74.953316"
       width="172.53406"
       height="91.393555"
       id="rect48-3" />
    <rect
       x="93.69165"
       y="74.953316"
       width="172.53406"
       height="91.393555"
       id="rect48-3-6" />
    <rect
       x="93.69165"
       y="74.953316"
       width="172.53406"
       height="91.393555"
       id="rect1" />
  </defs>
  <g
     inkscape:label="Forms Copy"
     id="g42"
     style="display:none"
     inkscape:groupmode="layer"
     sodipodi:insensitive="true"
     transform="translate(-20.315168,-7.2964573)">
    <g
       id="g35"
       inkscape:label="Blueish">
      <path
         sodipodi:type="star"
         style="display:inline;fill:#220055;stroke-width:0.264583"
         id="path33"
         inkscape:flatsided="true"
         sodipodi:sides="5"
         sodipodi:cx="40.184502"
         sodipodi:cy="26.850554"
         sodipodi:r1="12.989199"
         sodipodi:r2="9.1847506"
         sodipodi:arg1="1.5707963"
         sodipodi:arg2="2.1991148"
         inkscape:rounded="0.08"
         inkscape:randomized="0"
         d="m 40.184502,39.839752 c -1.221578,0 -11.975974,-7.813526 -12.353462,-8.975315 -0.377489,-1.161789 3.730325,-13.80434 4.718602,-14.522366 0.988277,-0.718025 14.281442,-0.718025 15.269719,0 0.988277,0.718025 5.096091,13.360576 4.718603,14.522365 -0.377488,1.16179 -11.131884,8.975316 -12.353462,8.975316 z"
         transform="rotate(90,42.996886,30.50296)"
         inkscape:label="back" />
      <path
         sodipodi:type="star"
         style="display:inline;fill:#330080;stroke-width:0.264583"
         id="path34"
         inkscape:flatsided="true"
         sodipodi:sides="4"
         sodipodi:cx="40.184502"
         sodipodi:cy="26.850554"
         sodipodi:r1="12.989199"
         sodipodi:r2="9.1847506"
         sodipodi:arg1="1.5707963"
         sodipodi:arg2="2.3561945"
         inkscape:rounded="0.08"
         inkscape:randomized="0"
         d="m 40.184502,39.839752 c -1.46956,0 -12.989199,-11.519638 -12.989199,-12.989198 0,-1.46956 11.519638,-12.989199 12.989198,-12.989199 1.46956,0 12.989199,11.519638 12.989199,12.989198 0,1.46956 -11.519638,12.989199 -12.989198,12.989199 z"
         transform="rotate(90,43.078093,30.584323)"
         inkscape:label="middle" />
      <path
         sodipodi:type="star"
         style="display:inline;fill:#7f2aff;stroke-width:0.264583"
         id="path35"
         inkscape:flatsided="true"
         sodipodi:sides="3"
         sodipodi:cx="40.184502"
         sodipodi:cy="26.850554"
         sodipodi:r1="12.989199"
         sodipodi:r2="9.1847506"
         sodipodi:arg1="1.5707963"
         sodipodi:arg2="2.6179939"
         inkscape:rounded="0.08"
         inkscape:randomized="0"
         d="m 40.184502,39.839752 c -1.799836,0 -12.148895,-17.925094 -11.248977,-19.483798 0.899918,-1.558703 21.598034,-1.558704 22.497953,0 0.899918,1.558704 -9.44914,19.483798 -11.248976,19.483798 z"
         transform="rotate(90,43.159213,30.665358)"
         inkscape:label="front" />
    </g>
    <g
       id="g38"
       inkscape:label="Red">
      <path
         sodipodi:type="star"
         style="display:inline;fill:#800000;stroke-width:0.264583"
         id="path36"
         inkscape:flatsided="true"
         sodipodi:sides="5"
         sodipodi:cx="40.184502"
         sodipodi:cy="26.850554"
         sodipodi:r1="12.989199"
         sodipodi:r2="9.1847506"
         sodipodi:arg1="1.5707963"
         sodipodi:arg2="2.1991148"
         inkscape:rounded="0.08"
         inkscape:randomized="0"
         d="m 40.184502,39.839752 c -1.221578,0 -11.975974,-7.813526 -12.353462,-8.975315 -0.377489,-1.161789 3.730325,-13.80434 4.718602,-14.522366 0.988277,-0.718025 14.281442,-0.718025 15.269719,0 0.988277,0.718025 5.096091,13.360576 4.718603,14.522365 -0.377488,1.16179 -11.131884,8.975316 -12.353462,8.975316 z"
         transform="rotate(-90,37.376597,30.496048)"
         inkscape:label="back" />
      <path
         sodipodi:type="star"
         style="display:inline;fill:#d40000;stroke-width:0.264583"
         id="path37"
         inkscape:flatsided="true"
         sodipodi:sides="4"
         sodipodi:cx="40.184502"
         sodipodi:cy="26.850554"
         sodipodi:r1="12.989199"
         sodipodi:r2="9.1847506"
         sodipodi:arg1="1.5707963"
         sodipodi:arg2="2.3561945"
         inkscape:rounded="0.08"
         inkscape:randomized="0"
         d="m 40.184502,39.839752 c -1.46956,0 -12.989199,-11.519638 -12.989199,-12.989198 0,-1.46956 11.519638,-12.989199 12.989198,-12.989199 1.46956,0 12.989199,11.519638 12.989199,12.989198 0,1.46956 -11.519638,12.989199 -12.989198,12.989199 z"
         transform="rotate(-90,37.295234,30.577255)"
         inkscape:label="middle" />
      <path
         sodipodi:type="star"
         style="display:inline;fill:#ff5555;stroke-width:0.264583"
         id="path38"
         inkscape:flatsided="true"
         sodipodi:sides="3"
         sodipodi:cx="40.184502"
         sodipodi:cy="26.850554"
         sodipodi:r1="12.989199"
         sodipodi:r2="9.1847506"
         sodipodi:arg1="1.5707963"
         sodipodi:arg2="2.6179939"
         inkscape:rounded="0.08"
         inkscape:randomized="0"
         d="m 40.184502,39.839752 c -1.799836,0 -12.148895,-17.925094 -11.248977,-19.483798 0.899918,-1.558703 21.598034,-1.558704 22.497953,0 0.899918,1.558704 -9.44914,19.483798 -11.248976,19.483798 z"
         transform="rotate(-90,37.214199,30.658375)"
         inkscape:label="front" />
    </g>
    <g
       id="g41"
       inkscape:label="Green">
      <path
         sodipodi:type="star"
         style="fill:#44aa00;stroke-width:0.264583"
         id="path39"
         inkscape:flatsided="true"
         sodipodi:sides="5"
         sodipodi:cx="40.184502"
         sodipodi:cy="26.850554"
         sodipodi:r1="12.989199"
         sodipodi:r2="9.1847506"
         sodipodi:arg1="1.5707963"
         sodipodi:arg2="2.1991148"
         inkscape:rounded="0.08"
         inkscape:randomized="0"
         d="m 40.184502,39.839752 c -1.221578,0 -11.975974,-7.813526 -12.353462,-8.975315 -0.377489,-1.161789 3.730325,-13.80434 4.718602,-14.522366 0.988277,-0.718025 14.281442,-0.718025 15.269719,0 0.988277,0.718025 5.096091,13.360576 4.718603,14.522365 -0.377488,1.16179 -11.131884,8.975316 -12.353462,8.975316 z"
         transform="translate(0.00569053,0.16256985)"
         inkscape:label="back" />
      <path
         sodipodi:type="star"
         style="fill:#55d400;stroke-width:0.264583"
         id="path40"
         inkscape:flatsided="true"
         sodipodi:sides="4"
         sodipodi:cx="40.184502"
         sodipodi:cy="26.850554"
         sodipodi:r1="12.989199"
         sodipodi:r2="9.1847506"
         sodipodi:arg1="1.5707963"
         sodipodi:arg2="2.3561945"
         inkscape:rounded="0.08"
         inkscape:randomized="0"
         d="m 40.184502,39.839752 c -1.46956,0 -12.989199,-11.519638 -12.989199,-12.989198 0,-1.46956 11.519638,-12.989199 12.989198,-12.989199 1.46956,0 12.989199,11.519638 12.989199,12.989198 0,1.46956 -11.519638,12.989199 -12.989198,12.989199 z"
         transform="translate(0.00584652)"
         inkscape:label="middle" />
      <path
         sodipodi:type="star"
         style="display:inline;fill:#7fff2a;stroke-width:0.264583"
         id="path41"
         inkscape:flatsided="true"
         sodipodi:sides="3"
         sodipodi:cx="40.184502"
         sodipodi:cy="26.850554"
         sodipodi:r1="12.989199"
         sodipodi:r2="9.1847506"
         sodipodi:arg1="1.5707963"
         sodipodi:arg2="2.6179939"
         inkscape:rounded="0.08"
         inkscape:randomized="0"
         d="m 40.184502,39.839752 c -1.799836,0 -12.148895,-17.925094 -11.248977,-19.483798 0.899918,-1.558703 21.598034,-1.558704 22.497953,0 0.899918,1.558704 -9.44914,19.483798 -11.248976,19.483798 z"
         transform="translate(0.00576168,-0.16215569)"
         inkscape:label="front" />
    </g>
  </g>
  <g
     inkscape:label="Forms"
     id="layer1"
     style="display:inline"
     inkscape:groupmode="layer"
     sodipodi:insensitive="true"
     transform="translate(-20.315168,-7.2964573)">
    <g
       id="g33"
       inkscape:label="Blueish">
      <path
         sodipodi:type="star"
         style="display:inline;fill:#220055;stroke-width:0.264583"
         id="path21"
         inkscape:flatsided="true"
         sodipodi:sides="5"
         sodipodi:cx="40.184502"
         sodipodi:cy="26.850554"
         sodipodi:r1="12.989199"
         sodipodi:r2="9.1847506"
         sodipodi:arg1="1.5707963"
         sodipodi:arg2="2.1991148"
         inkscape:rounded="0.08"
         inkscape:randomized="0"
         d="m 40.184502,39.839752 c -1.221578,0 -11.975974,-7.813526 -12.353462,-8.975315 -0.377489,-1.161789 3.730325,-13.80434 4.718602,-14.522366 0.988277,-0.718025 14.281442,-0.718025 15.269719,0 0.988277,0.718025 5.096091,13.360576 4.718603,14.522365 -0.377488,1.16179 -11.131884,8.975316 -12.353462,8.975316 z"
         transform="rotate(90,42.996886,30.50296)"
         inkscape:label="back" />
      <path
         sodipodi:type="star"
         style="display:inline;fill:#330080;stroke-width:0.264583"
         id="path22"
         inkscape:flatsided="true"
         sodipodi:sides="4"
         sodipodi:cx="40.184502"
         sodipodi:cy="26.850554"
         sodipodi:r1="12.989199"
         sodipodi:r2="9.1847506"
         sodipodi:arg1="1.5707963"
         sodipodi:arg2="2.3561945"
         inkscape:rounded="0.08"
         inkscape:randomized="0"
         d="m 40.184502,39.839752 c -1.46956,0 -12.989199,-11.519638 -12.989199,-12.989198 0,-1.46956 11.519638,-12.989199 12.989198,-12.989199 1.46956,0 12.989199,11.519638 12.989199,12.989198 0,1.46956 -11.519638,12.989199 -12.989198,12.989199 z"
         transform="rotate(90,43.078093,30.584323)"
         inkscape:label="middle" />
      <path
         sodipodi:type="star"
         style="display:inline;fill:#7f2aff;stroke-width:0.264583"
         id="path23"
         inkscape:flatsided="true"
         sodipodi:sides="3"
         sodipodi:cx="40.184502"
         sodipodi:cy="26.850554"
         sodipodi:r1="12.989199"
         sodipodi:r2="9.1847506"
         sodipodi:arg1="1.5707963"
         sodipodi:arg2="2.6179939"
         inkscape:rounded="0.08"
         inkscape:randomized="0"
         d="m 40.184502,39.839752 c -1.799836,0 -12.148895,-17.925094 -11.248977,-19.483798 0.899918,-1.558703 21.598034,-1.558704 22.497953,0 0.899918,1.558704 -9.44914,19.483798 -11.248976,19.483798 z"
         transform="rotate(90,43.159213,30.665358)"
         inkscape:label="front" />
    </g>
    <g
       id="g32"
       inkscape:label="Red">
      <path
         sodipodi:type="star"
         style="display:inline;fill:#800000;stroke-width:0.264583"
         id="path24"
         inkscape:flatsided="true"
         sodipodi:sides="5"
         sodipodi:cx="40.184502"
         sodipodi:cy="26.850554"
         sodipodi:r1="12.989199"
         sodipodi:r2="9.1847506"
         sodipodi:arg1="1.5707963"
         sodipodi:arg2="2.1991148"
         inkscape:rounded="0.08"
         inkscape:randomized="0"
         d="m 40.184502,39.839752 c -1.221578,0 -11.975974,-7.813526 -12.353462,-8.975315 -0.377489,-1.161789 3.730325,-13.80434 4.718602,-14.522366 0.988277,-0.718025 14.281442,-0.718025 15.269719,0 0.988277,0.718025 5.096091,13.360576 4.718603,14.522365 -0.377488,1.16179 -11.131884,8.975316 -12.353462,8.975316 z"
         transform="rotate(-90,37.376597,30.496048)"
         inkscape:label="back" />
      <path
         sodipodi:type="star"
         style="display:inline;fill:#d40000;stroke-width:0.264583"
         id="path25"
         inkscape:flatsided="true"
         sodipodi:sides="4"
         sodipodi:cx="40.184502"
         sodipodi:cy="26.850554"
         sodipodi:r1="12.989199"
         sodipodi:r2="9.1847506"
         sodipodi:arg1="1.5707963"
         sodipodi:arg2="2.3561945"
         inkscape:rounded="0.08"
         inkscape:randomized="0"
         d="m 40.184502,39.839752 c -1.46956,0 -12.989199,-11.519638 -12.989199,-12.989198 0,-1.46956 11.519638,-12.989199 12.989198,-12.989199 1.46956,0 12.989199,11.519638 12.989199,12.989198 0,1.46956 -11.519638,12.989199 -12.989198,12.989199 z"
         transform="rotate(-90,37.295234,30.577255)"
         inkscape:label="middle" />
      <path
         sodipodi:type="star"
         style="display:inline;fill:#ff5555;stroke-width:0.264583"
         id="path26"
         inkscape:flatsided="true"
         sodipodi:sides="3"
         sodipodi:cx="40.184502"
         sodipodi:cy="26.850554"
         sodipodi:r1="12.989199"
         sodipodi:r2="9.1847506"
         sodipodi:arg1="1.5707963"
         sodipodi:arg2="2.6179939"
         inkscape:rounded="0.08"
         inkscape:randomized="0"
         d="m 40.184502,39.839752 c -1.799836,0 -12.148895,-17.925094 -11.248977,-19.483798 0.899918,-1.558703 21.598034,-1.558704 22.497953,0 0.899918,1.558704 -9.44914,19.483798 -11.248976,19.483798 z"
         transform="rotate(-90,37.214199,30.658375)"
         inkscape:label="front" />
    </g>
    <g
       id="g31"
       inkscape:label="Green">
      <path
         sodipodi:type="star"
         style="fill:#44aa00;stroke-width:0.264583"
         id="path17-5"
         inkscape:flatsided="true"
         sodipodi:sides="5"
         sodipodi:cx="40.184502"
         sodipodi:cy="26.850554"
         sodipodi:r1="12.989199"
         sodipodi:r2="9.1847506"
         sodipodi:arg1="1.5707963"
         sodipodi:arg2="2.1991148"
         inkscape:rounded="0.08"
         inkscape:randomized="0"
         d="m 40.184502,39.839752 c -1.221578,0 -11.975974,-7.813526 -12.353462,-8.975315 -0.377489,-1.161789 3.730325,-13.80434 4.718602,-14.522366 0.988277,-0.718025 14.281442,-0.718025 15.269719,0 0.988277,0.718025 5.096091,13.360576 4.718603,14.522365 -0.377488,1.16179 -11.131884,8.975316 -12.353462,8.975316 z"
         transform="translate(0.00569053,0.16256985)"
         inkscape:label="back" />
      <path
         sodipodi:type="star"
         style="fill:#55d400;stroke-width:0.264583"
         id="path17"
         inkscape:flatsided="true"
         sodipodi:sides="4"
         sodipodi:cx="40.184502"
         sodipodi:cy="26.850554"
         sodipodi:r1="12.989199"
         sodipodi:r2="9.1847506"
         sodipodi:arg1="1.5707963"
         sodipodi:arg2="2.3561945"
         inkscape:rounded="0.08"
         inkscape:randomized="0"
         d="m 40.184502,39.839752 c -1.46956,0 -12.989199,-11.519638 -12.989199,-12.989198 0,-1.46956 11.519638,-12.989199 12.989198,-12.989199 1.46956,0 12.989199,11.519638 12.989199,12.989198 0,1.46956 -11.519638,12.989199 -12.989198,12.989199 z"
         transform="translate(0.00584652)"
         inkscape:label="middle" />
      <path
         sodipodi:type="star"
         style="display:inline;fill:#7fff2a;stroke-width:0.264583"
         id="path17-7"
         inkscape:flatsided="true"
         sodipodi:sides="3"
         sodipodi:cx="40.184502"
         sodipodi:cy="26.850554"
         sodipodi:r1="12.989199"
         sodipodi:r2="9.1847506"
         sodipodi:arg1="1.5707963"
         sodipodi:arg2="2.6179939"
         inkscape:rounded="0.08"
         inkscape:randomized="0"
         d="m 40.184502,39.839752 c -1.799836,0 -12.148895,-17.925094 -11.248977,-19.483798 0.899918,-1.558703 21.598034,-1.558704 22.497953,0 0.899918,1.558704 -9.44914,19.483798 -11.248976,19.483798 z"
         transform="translate(0.00576168,-0.16215569)"
         inkscape:label="front" />
    </g>
  </g>
  <g
     inkscape:groupmode="layer"
     id="layer3"
     inkscape:label="Text"
     sodipodi:insensitive="true"
     transform="translate(-20.315168,-7.2964573)">
    <text
       xml:space="preserve"
       transform="matrix(0.26458333,0,0,0.26458333,1.7558619,-0.52916667)"
       id="text48"
       style="font-style:normal;font-variant:normal;font-weight:bold;font-stretch:normal;font-size:56px;font-family:'FiraCode Nerd Font Mono';-inkscape-font-specification:'FiraCode Nerd Font Mono Bold';white-space:pre;shape-inside:url(#rect48);display:inline;fill:#1f1c24"
       inkscape:label="XAL"
       sodipodi:insensitive="true"><tspan
         x="93.691406"
         y="123.95312"
         id="tspan1">XAL</tspan></text>
  </g>
  <g
     inkscape:groupmode="layer"
     id="layer3-2"
     inkscape:label="Apps by Alex"
     transform="translate(14.087533,-5.6775741)"
     style="display:none;fill:#330080">
    <text
       xml:space="preserve"
       transform="matrix(0.26458333,0,0,0.26458333,3.3461156,-10.015823)"
       id="text48-7"
       style="font-style:normal;font-variant:normal;font-weight:bold;font-stretch:normal;font-size:56px;font-family:'FiraCode Nerd Font Mono';-inkscape-font-specification:'FiraCode Nerd Font Mono Bold';white-space:pre;shape-inside:url(#rect48-3);display:inline;fill:#7f2aff"
       inkscape:label="Apps"><tspan
         x="93.691406"
         y="123.95312"
         id="tspan2">Apps</tspan></text>
    <text
       xml:space="preserve"
       transform="matrix(0.26458333,0,0,0.26458333,2.8349043,5.4014968)"
       id="text48-7-5"
       style="font-style:normal;font-variant:normal;font-weight:bold;font-stretch:normal;font-size:18px;line-height:1;font-family:'FiraCode Nerd Font Mono';-inkscape-font-specification:'FiraCode Nerd Font Mono Bold';white-space:pre;shape-inside:url(#rect48-3-6);display:inline;fill:#7f2aff"
       inkscape:label="by Alex"><tspan
         x="93.691406"
         y="88.453125"
         id="tspan3">by
</tspan><tspan
         x="93.691406"
         y="106.45312"
         id="tspan5">Alexandru
</tspan><tspan
         x="93.691406"
         y="124.45312"
         id="tspan6">Prisacariu</tspan></text>
  </g>
  <text
     xml:space="preserve"
     transform="matrix(0.26458333,0,0,0.26458333,-10.651377,4.9307797)"
     id="text1"
     style="font-style:normal;font-variant:normal;font-weight:bold;font-stretch:normal;font-size:18px;font-family:'FiraCode Nerd Font Mono';-inkscape-font-specification:'FiraCode Nerd Font Mono Bold';white-space:pre;shape-inside:url(#rect1);display:inline;fill:#1f1c24;fill-opacity:1"
     inkscape:label="Apps"><tspan
       x="93.691406"
       y="90.703125"
       id="tspan7">APPS</tspan></text>
</svg>
